<svg width="156" height="30" viewBox="0 0 156 30" fill="none" xmlns="http://www.w3.org/2000/svg">
<path d="M49.5124 16.5525H42.9953L40.7575 22.2142H39.5173L45.9687 6.10742H46.6815L53.0011 22.2142H51.7397L49.5124 16.5525ZM43.4009 15.5428H49.1395L46.9558 9.76125C46.7732 9.30784 46.5538 8.6788 46.2979 7.87378C46.0999 8.57664 45.8847 9.21271 45.6506 9.78309L43.4009 15.5428Z" fill="white"/>
<path d="M63.3036 22.2142V14.4787C63.3036 13.2795 63.0513 12.4093 62.5464 11.8678C62.0416 11.3193 61.2589 11.0451 60.1985 11.0451C58.7722 11.0451 57.7266 11.4068 57.0602 12.1308C56.4025 12.8479 56.0732 14.0149 56.0732 15.6309V22.2142H54.9874V10.2879H55.9088L56.1169 11.9229H56.1825C56.958 10.6792 58.3372 10.0573 60.3198 10.0573C63.0251 10.0573 64.3789 11.5097 64.3789 14.4132V22.2142H63.3036Z" fill="white"/>
<path d="M75.4817 22.2142L75.2081 20.3267H75.1199C74.5207 21.0946 73.9023 21.6395 73.2656 21.961C72.6366 22.2763 71.8906 22.4335 71.0276 22.4335C69.8573 22.4335 68.947 22.1337 68.2954 21.5337C67.6447 20.9337 67.3189 20.1031 67.3189 19.0427C67.3189 17.8801 67.802 16.9768 68.7673 16.3332C69.7401 15.6901 71.1448 15.3489 72.9801 15.3121L75.2511 15.2466V14.4569C75.2511 13.3232 75.0212 12.4673 74.5607 11.8899C74.0997 11.3123 73.3566 11.0226 72.3328 11.0226C71.2285 11.0226 70.0836 11.33 68.899 11.9447L68.4929 11.0007C69.8022 10.3865 71.0968 10.0791 72.3772 10.0791C73.6866 10.0791 74.6631 10.419 75.306 11.0995C75.9576 11.7798 76.2825 12.8402 76.2825 14.2815V22.2142H75.4817ZM71.0933 21.4456C72.3659 21.4456 73.3679 21.0839 74.0998 20.3598C74.8381 19.6287 75.2081 18.6147 75.2081 17.3209V16.1469L73.1233 16.2345C71.4487 16.3148 70.2521 16.5778 69.5352 17.0241C68.8266 17.4633 68.4712 18.1508 68.4712 19.0872C68.4712 19.833 68.6982 20.4148 69.1516 20.8316C69.6119 21.2411 70.2599 21.4456 71.0933 21.4456V21.4456Z" fill="white"/>
<path d="M80.1336 5.14221H81.2195V22.2141H80.1336V5.14221Z" fill="white"/>
<path d="M83.2274 9.94849H84.347L86.8706 16.6417C87.6384 18.6962 88.1248 20.0824 88.3294 20.7995H88.3949C88.7023 19.856 89.2035 18.448 89.8988 16.5746L92.4216 9.94849H93.5413L88.1981 23.8052C87.7666 24.9318 87.4043 25.6926 87.1117 26.0876C86.819 26.4823 86.4757 26.7792 86.0802 26.9758C85.6923 27.1733 85.2206 27.2727 84.6651 27.2727C84.2483 27.2727 83.7837 27.1958 83.2711 27.0422V26.098C83.6956 26.2152 84.1532 26.2744 84.6432 26.2744C85.0154 26.2744 85.3454 26.1861 85.6304 26.0107C85.9159 25.8351 86.1719 25.5609 86.3988 25.1878C86.6329 24.8219 86.8995 24.2375 87.1998 23.433C87.5065 22.6355 87.7039 22.1159 87.7913 21.8747L83.2274 9.94849Z" fill="white"/>
<path d="M98.6863 21.4674C99.3743 21.4674 99.9736 21.4096 100.486 21.2925V22.1704C99.9595 22.3451 99.3525 22.4334 98.665 22.4334C97.6116 22.4334 96.8326 22.1513 96.3277 21.588C95.8306 21.0253 95.5817 20.1398 95.5817 18.9334V11.2311H93.8155V10.5952L95.5817 10.1016L96.1302 7.40259H96.6901V10.2879H100.19V11.2311H96.6901V18.7796C96.6901 19.6942 96.851 20.3703 97.1724 20.8096C97.4946 21.2481 97.9988 21.4674 98.6863 21.4674Z" fill="white"/>
<path d="M104.172 22.2141H103.087V10.2879H104.172V22.2141ZM102.933 6.97465C102.933 6.27179 103.163 5.92126 103.624 5.92126C103.851 5.92126 104.026 6.01223 104.151 6.19562C104.282 6.37811 104.348 6.63839 104.348 6.97465C104.348 7.30316 104.282 7.56272 104.151 7.75368C104.026 7.94339 103.851 8.03869 103.624 8.03869C103.163 8.03869 102.933 7.68401 102.933 6.97465Z" fill="white"/>
<path d="M112.938 22.4335C111.234 22.4335 109.9 21.8954 108.934 20.8202C107.968 19.7457 107.486 18.2459 107.486 16.3225C107.486 14.3477 107.987 12.8113 108.989 11.7142C109.991 10.6094 111.363 10.0573 113.103 10.0573C114.135 10.0573 115.122 10.2363 116.065 10.5953L115.769 11.5604C114.738 11.2164 113.842 11.0451 113.081 11.0451C111.618 11.0451 110.51 11.4985 109.757 12.4052C109.003 13.3048 108.627 14.6029 108.627 16.3C108.627 17.9097 109.003 19.171 109.757 20.0856C110.51 20.9922 111.563 21.4456 112.916 21.4456C113.999 21.4456 115.005 21.2518 115.933 20.8639V21.8743C115.173 22.2465 114.175 22.4335 112.938 22.4335Z" fill="white"/>
<path d="M119.785 10.288V18.012C119.785 19.2113 120.037 20.0856 120.542 20.6341C121.047 21.1749 121.83 21.4457 122.89 21.4457C124.309 21.4457 125.351 21.0875 126.017 20.3704C126.69 19.654 127.026 18.4871 127.026 16.8704V10.288H128.102V22.2142H127.18L126.982 20.5679H126.917C126.141 21.8115 124.763 22.4335 122.78 22.4335C120.067 22.4335 118.71 20.981 118.71 18.0783V10.288H119.785Z" fill="white"/>
<path d="M146.995 22.2142V14.3914C146.995 13.2281 146.767 12.3797 146.314 11.846C145.86 11.3123 145.166 11.0451 144.23 11.0451C143.008 11.0451 142.105 11.3814 141.52 12.0541C140.934 12.7274 140.642 13.7844 140.642 15.2255V22.2142H139.534V14.0622C139.534 12.0505 138.612 11.0451 136.769 11.0451C135.518 11.0451 134.607 11.4103 134.037 12.1422C133.467 12.8663 133.181 14.0289 133.181 15.6309V22.2142H132.095V10.2879H132.994L133.225 11.9229H133.29C133.621 11.3299 134.088 10.8731 134.695 10.5515C135.302 10.2215 135.972 10.0573 136.703 10.0573C138.583 10.0573 139.79 10.763 140.324 12.1747H140.368C140.756 11.4949 141.275 10.9718 141.925 10.6058C142.584 10.2406 143.33 10.0573 144.164 10.0573C145.466 10.0573 146.442 10.4049 147.093 11.0994C147.745 11.7945 148.069 12.8987 148.069 14.4132V22.2142H146.995Z" fill="white"/>
<path d="M151.838 5.83534H156V6.62141H151.838V10.7629H151.053V6.62141H146.911V5.83534H151.053V1.67395H151.838V5.83534Z" fill="white"/>
<path d="M7.20437 0.000386268C3.21314 0.000386268 0 3.14388 0 7.04907V19.5924L8.41505 19.6324V7.60345L19.1739 7.50256V0H7.20437V0.000386268ZM20.735 0.000386268V7.48687L29.0917 7.40874V7.04869C29.0917 3.14388 25.8789 4.06598e-06 21.8873 4.06598e-06H20.735V0.000386268ZM29.0917 8.93444L20.735 9.01324V21.2196L9.97584 21.1681V29.0913H21.8873C25.8789 29.0913 29.0917 25.9478 29.0917 22.0422V8.93444ZM19.1739 9.02815L15.9111 9.06028L19.1739 17.2109V9.02815ZM13.7067 9.08007L9.97584 9.11594V18.3514L13.7067 9.08007ZM14.791 9.55076C14.6593 10.1115 14.4718 10.7286 14.2271 11.4007L12.6865 15.3723H16.9244L15.4015 11.4007C15.204 10.8982 14.9998 10.2811 14.791 9.55078V9.55076ZM12.1486 16.7133L10.9887 19.6454L18.5867 19.6828L17.3978 16.7137H12.1486V16.7133ZM0 21.1198V22.043C0 25.9482 3.21314 29.0917 7.20437 29.0917H8.41505V21.1598L0 21.1202V21.1198Z" fill="white"/>
</svg>
