<svg width="1143" height="119" viewBox="0 0 1143 119" fill="none" xmlns="http://www.w3.org/2000/svg">
<rect width="39.6664" height="38.1007" transform="matrix(0 1 1 0 114.302 39.666)" fill="white"/>
<rect width="39.6664" height="38.1007" transform="matrix(0 1 1 0 76.2016 79.3336)" fill="white"/>
<rect width="39.6664" height="38.1007" transform="matrix(0 1 1 0 38.1002 39.666)" fill="white"/>
<rect width="39.6664" height="38.1007" transform="matrix(0 1 1 0 152.403 39.666)" fill="white"/>
<rect width="39.6664" height="38.1007" transform="matrix(0 1 1 0 114.302 0)" fill="white"/>
<rect width="39.6664" height="38.1007" transform="matrix(0 1 1 0 0 39.666)" fill="white"/>
<rect width="39.6664" height="38.1007" transform="matrix(0 1 1 0 1068.41 39.666)" fill="white"/>
<rect width="39.6664" height="38.1007" transform="matrix(0 1 1 0 1030.31 79.3336)" fill="white"/>
<rect width="39.6664" height="38.1007" transform="matrix(0 1 1 0 992.205 39.666)" fill="white"/>
<rect width="39.6664" height="38.1007" transform="matrix(0 1 1 0 1106.51 39.666)" fill="white"/>
<rect width="39.6664" height="38.1007" transform="matrix(0 1 1 0 1068.41 0)" fill="white"/>
<rect width="40.7105" height="148.75" transform="matrix(0 1 1 0 843.96 39.1447)" fill="white"/>
<rect width="39.6664" height="38.1007" transform="matrix(0 1 1 0 522.296 39.666)" fill="white"/>
<rect width="39.6664" height="38.1007" transform="matrix(0 1 1 0 655.649 39.666)" fill="white"/>
<rect width="39.6664" height="38.1007" transform="matrix(0 1 1 0 735.026 79.3336)" fill="white"/>
<rect width="39.6664" height="38.1007" transform="matrix(0 1 1 0 693.75 39.666)" fill="white"/>
<rect width="39.6664" height="38.1007" transform="matrix(0 1 1 0 484.196 79.3336)" fill="white"/>
<rect width="39.6664" height="38.1007" transform="matrix(0 1 1 0 655.649 0)" fill="white"/>
<rect width="39.6664" height="38.1007" transform="matrix(0 1 1 0 617.549 39.666)" fill="white"/>
</svg>
